<?xml version="1.0" standalone="no"?><!DOCTYPE svg PUBLIC "-//W3C//DTD SVG 1.1//EN" "http://www.w3.org/Graphics/SVG/1.1/DTD/svg11.dtd"><svg class="icon" width="200px" height="200.00px" viewBox="0 0 1024 1024" version="1.1" xmlns="http://www.w3.org/2000/svg"><path d="M512 512m-511.273759 0a511.273759 511.273759 0 1 0 1022.547518 0 511.273759 511.273759 0 1 0-1022.547518 0Z" fill="#f2f2f2" /><path d="M815.841135 451.358865h-24.964539v-1.270922H512v123.914894h175.114894C661.605674 646.17305 592.975887 697.91773 512 697.91773c-102.67234 0-185.91773-83.24539-185.91773-185.91773 0-102.67234 83.24539-185.91773 185.91773-185.91773 47.387234 0 90.507801 17.883688 123.370213 47.114893l87.602837-87.602837c-55.375887-51.563121-129.361702-83.42695-210.97305-83.42695-171.120567 0-309.832624 138.712057-309.832624 309.832624S340.879433 821.832624 512 821.832624 821.832624 683.120567 821.832624 512c0.09078-20.697872-2.087943-41.032624-5.991489-60.641135z m0 0" fill="#ffc107" /><path d="M237.934752 367.841135l101.764539 74.621276C367.296454 374.286525 433.929078 326.08227 512 326.08227c47.387234 0 90.507801 17.883688 123.370213 47.114893l87.602837-87.602837c-55.375887-51.563121-129.361702-83.42695-210.97305-83.42695-119.012766 0-222.229787 67.177305-274.065248 165.673759z m0 0" fill="#ff3d00" /><path d="M512 821.923404c80.068085 0 152.782979-30.592908 207.704965-80.431205l-95.86383-81.157447c-32.13617 24.419858-71.443972 37.673759-111.841135 37.673759-80.612766 0-149.060993-51.38156-174.842553-123.097873L236.209929 652.70922C287.500709 753.021277 391.625532 821.923404 512 821.923404z m0 0" fill="#4caf50" /><path d="M815.841135 451.358865h-24.964539v-1.270922H512v123.914894h175.114894c-12.255319 34.314894-34.224113 64.363121-63.273759 86.331915h0.09078l95.86383 81.157447c-6.808511 6.17305 102.12766-74.439716 102.127659-229.401419 0-20.788652-2.178723-41.123404-6.082269-60.731915z m0 0" fill="#1976d2" /></svg>