<?xml version="1.0" standalone="no"?><!DOCTYPE svg PUBLIC "-//W3C//DTD SVG 1.1//EN" "http://www.w3.org/Graphics/SVG/1.1/DTD/svg11.dtd"><svg class="icon" width="200px" height="200.00px" viewBox="0 0 1024 1024" version="1.1" xmlns="http://www.w3.org/2000/svg"><path d="M463.029 927.058C233.815 927.058 48 741.243 48 512.029S233.815 97 463.029 97s415.029 185.815 415.029 415.029-185.815 415.029-415.029 415.029z m0-137.119c153.486 0 277.91-124.424 277.91-277.91 0-153.486-124.424-277.91-277.91-277.91-153.486 0-277.91 124.424-277.91 277.91 0 153.486 124.424 277.91 277.91 277.91z" fill="#19b955" /><path d="M139.82 701.792c-37.864 0-68.559-30.696-68.559-68.56 0-37.864 30.695-68.56 68.56-68.56 37.864 0 68.559 30.696 68.559 68.56 0 37.864-30.695 68.56-68.56 68.56z m646.417 0c-37.864 0-68.559-30.696-68.559-68.56 0-37.864 30.695-68.56 68.56-68.56 37.864 0 68.559 30.696 68.559 68.56 0 37.864-30.695 68.56-68.56 68.56z" fill="#000000" /><path d="M720.956 616.092c9.857-25.772 34.82-44.074 64.057-44.074 37.864 0 68.56 30.696 68.56 68.56 0 10.648-2.428 20.73-6.76 29.721-62.217 150.703-210.615 256.759-383.784 256.759-173.169 0-321.567-106.056-383.784-256.759-4.332-8.991-6.76-19.073-6.76-29.721 0-37.864 30.696-68.56 68.56-68.56 29.237 0 54.2 18.302 64.058 44.074h0.155c41.189 101.93 141.081 173.847 257.771 173.847 116.69 0 216.582-71.917 257.771-173.847h0.156zM907.44 895.227c-37.865 0-68.56-30.695-68.56-68.56 0-37.864 30.695-68.559 68.56-68.559 37.864 0 68.559 30.695 68.559 68.56 0 37.864-30.695 68.559-68.56 68.559z" fill="#f8b616" /></svg>